# xmcd CD database file
#
# Track frame offsets:
#	150
#	12972
#	31545
#	49084
#	58837
#	75694
#	90217
#	99660
#	121173
#	137561
#	148310
#	158292
#
# Disc length: 2357 seconds
#
# Revision: 0
# Processed by: cddbd v1.5.2PL0 Copyright (c) Steve Scherf et al.
# Submitted via: CDex 1.70beta2
#
DISCID=8a09330c
DTITLE=Junior Wells - Hoodoo Man Blues
DYEAR=1965
DGENRE=Blues
TTITLE0=Snatch It Back and Hold It
TTITLE1=Ships on the Ocean
TTITLE2=Good Morning Schoolgirl
TTITLE3=Hound Dog
TTITLE4=In the Wee Wee Hours
TTITLE5=Hey Lawdy Mama
TTITLE6=HooDoo Man Blues
TTITLE7=Early in the Morning
TTITLE8=We're Ready
TTITLE9=You Don't Love Me Baby
TTITLE10=Chitlin Con Carne
TTITLE11=Yonder Wall
EXTD=YEAR: 1965
EXTT0=
EXTT1=
EXTT2=
EXTT3=
EXTT4=
EXTT5=
EXTT6=
EXTT7=
EXTT8=
EXTT9=
EXTT10=
EXTT11=
PLAYORDER=
